<?xml version="1.0"?>
<!-- Generated by SVGo and Plotinum VG -->
<svg width="288pt" height="177.99pt" viewBox="0 0 288 177.99"
	xmlns="http://www.w3.org/2000/svg"
	xmlns:xlink="http://www.w3.org/1999/xlink">
<g transform="scale(1, -1) translate(0, -177.99)">
<path d="M0,0L288,0L288,177.99L0,177.99Z" style="fill:#FFFFFF" />
<text x="133.99" y="-168.27" transform="scale(1, -1)"
	style="font-family:Helvetica;font-weight:normal;font-style:normal;font-size:12px">h2d</text>
<text x="19.365" y="-3.0664" transform="scale(1, -1)"
	style="font-family:Helvetica;font-weight:normal;font-style:normal;font-size:10px">0</text>
<text x="107.06" y="-3.0664" transform="scale(1, -1)"
	style="font-family:Helvetica;font-weight:normal;font-style:normal;font-size:10px">1</text>
<text x="194.75" y="-3.0664" transform="scale(1, -1)"
	style="font-family:Helvetica;font-weight:normal;font-style:normal;font-size:10px">2</text>
<text x="282.44" y="-3.0664" transform="scale(1, -1)"
	style="font-family:Helvetica;font-weight:normal;font-style:normal;font-size:10px">3</text>
<path d="M22.146,11.172L22.146,19.172" style="fill:none;stroke:#000000;stroke-width:0.5" />
<path d="M109.84,11.172L109.84,19.172" style="fill:none;stroke:#000000;stroke-width:0.5" />
<path d="M197.53,11.172L197.53,19.172" style="fill:none;stroke:#000000;stroke-width:0.5" />
<path d="M285.22,11.172L285.22,19.172" style="fill:none;stroke:#000000;stroke-width:0.5" />
<path d="M39.684,15.172L39.684,19.172" style="fill:none;stroke:#000000;stroke-width:0.5" />
<path d="M57.222,15.172L57.222,19.172" style="fill:none;stroke:#000000;stroke-width:0.5" />
<path d="M74.76,15.172L74.76,19.172" style="fill:none;stroke:#000000;stroke-width:0.5" />
<path d="M92.299,15.172L92.299,19.172" style="fill:none;stroke:#000000;stroke-width:0.5" />
<path d="M127.38,15.172L127.38,19.172" style="fill:none;stroke:#000000;stroke-width:0.5" />
<path d="M144.91,15.172L144.91,19.172" style="fill:none;stroke:#000000;stroke-width:0.5" />
<path d="M162.45,15.172L162.45,19.172" style="fill:none;stroke:#000000;stroke-width:0.5" />
<path d="M179.99,15.172L179.99,19.172" style="fill:none;stroke:#000000;stroke-width:0.5" />
<path d="M215.07,15.172L215.07,19.172" style="fill:none;stroke:#000000;stroke-width:0.5" />
<path d="M232.6,15.172L232.6,19.172" style="fill:none;stroke:#000000;stroke-width:0.5" />
<path d="M250.14,15.172L250.14,19.172" style="fill:none;stroke:#000000;stroke-width:0.5" />
<path d="M267.68,15.172L267.68,19.172" style="fill:none;stroke:#000000;stroke-width:0.5" />
<path d="M22.146,19.172L285.22,19.172" style="fill:none;stroke:#000000;stroke-width:0.5" />
<text x="0" y="-21.902" transform="scale(1, -1)"
	style="font-family:Helvetica;font-weight:normal;font-style:normal;font-size:10px">0</text>
<text x="0" y="-67.578" transform="scale(1, -1)"
	style="font-family:Helvetica;font-weight:normal;font-style:normal;font-size:10px">1</text>
<text x="0" y="-113.25" transform="scale(1, -1)"
	style="font-family:Helvetica;font-weight:normal;font-style:normal;font-size:10px">2</text>
<text x="0" y="-158.93" transform="scale(1, -1)"
	style="font-family:Helvetica;font-weight:normal;font-style:normal;font-size:10px">3</text>
<path d="M8.3398,24.422L16.34,24.422" style="fill:none;stroke:#000000;stroke-width:0.5" />
<path d="M8.3398,70.097L16.34,70.097" style="fill:none;stroke:#000000;stroke-width:0.5" />
<path d="M8.3398,115.77L16.34,115.77" style="fill:none;stroke:#000000;stroke-width:0.5" />
<path d="M8.3398,161.45L16.34,161.45" style="fill:none;stroke:#000000;stroke-width:0.5" />
<path d="M12.34,33.557L16.34,33.557" style="fill:none;stroke:#000000;stroke-width:0.5" />
<path d="M12.34,42.692L16.34,42.692" style="fill:none;stroke:#000000;stroke-width:0.5" />
<path d="M12.34,51.827L16.34,51.827" style="fill:none;stroke:#000000;stroke-width:0.5" />
<path d="M12.34,60.962L16.34,60.962" style="fill:none;stroke:#000000;stroke-width:0.5" />
<path d="M12.34,79.232L16.34,79.232" style="fill:none;stroke:#000000;stroke-width:0.5" />
<path d="M12.34,88.367L16.34,88.367" style="fill:none;stroke:#000000;stroke-width:0.5" />
<path d="M12.34,97.502L16.34,97.502" style="fill:none;stroke:#000000;stroke-width:0.5" />
<path d="M12.34,106.64L16.34,106.64" style="fill:none;stroke:#000000;stroke-width:0.5" />
<path d="M12.34,124.91L16.34,124.91" style="fill:none;stroke:#000000;stroke-width:0.5" />
<path d="M12.34,134.04L16.34,134.04" style="fill:none;stroke:#000000;stroke-width:0.5" />
<path d="M12.34,143.18L16.34,143.18" style="fill:none;stroke:#000000;stroke-width:0.5" />
<path d="M12.34,152.31L16.34,152.31" style="fill:none;stroke:#000000;stroke-width:0.5" />
<path d="M16.34,24.422L16.34,161.45" style="fill:none;stroke:#000000;stroke-width:0.5" />
<path d="M22.146,24.422L109.84,24.422L109.84,70.097L22.146,70.097Z" style="fill:#313695" />
<path d="M22.146,70.097L109.84,70.097L109.84,115.77L22.146,115.77Z" style="fill:#313695" />
<path d="M22.146,115.77L109.84,115.77L109.84,161.45L22.146,161.45Z" style="fill:#FEE090" />
<path d="M109.84,24.422L197.53,24.422L197.53,70.097L109.84,70.097Z" style="fill:#ABD9E9" />
<path d="M109.84,70.097L197.53,70.097L197.53,115.77L109.84,115.77Z" style="fill:#E0F3F8" />
<path d="M109.84,115.77L197.53,115.77L197.53,161.45L109.84,161.45Z" style="fill:#F46D43" />
<path d="M197.53,24.422L285.22,24.422L285.22,70.097L197.53,70.097Z" style="fill:#F46D43" />
<path d="M197.53,70.097L285.22,70.097L285.22,115.77L197.53,115.77Z" style="fill:#F46D43" />
<path d="M197.53,115.77L285.22,115.77L285.22,161.45L197.53,161.45Z" style="fill:#A50026" />
<path d="M22.146,24.422L22.146,161.45" style="fill:none;stroke:#808080;stroke-width:0.25" />
<path d="M109.84,24.422L109.84,161.45" style="fill:none;stroke:#808080;stroke-width:0.25" />
<path d="M197.53,24.422L197.53,161.45" style="fill:none;stroke:#808080;stroke-width:0.25" />
<path d="M285.22,24.422L285.22,161.45" style="fill:none;stroke:#808080;stroke-width:0.25" />
<path d="M22.146,24.422L285.22,24.422" style="fill:none;stroke:#808080;stroke-width:0.25" />
<path d="M22.146,70.097L285.22,70.097" style="fill:none;stroke:#808080;stroke-width:0.25" />
<path d="M22.146,115.77L285.22,115.77" style="fill:none;stroke:#808080;stroke-width:0.25" />
<path d="M22.146,161.45L285.22,161.45" style="fill:none;stroke:#808080;stroke-width:0.25" />
</g>
</svg>
